<?xml version="1.0" encoding="UTF-8"?><svg id="Layer_1" xmlns="http://www.w3.org/2000/svg" xmlns:xlink="http://www.w3.org/1999/xlink" viewBox="0 0 79.9 15.99"><defs><style>.cls-1{fill:none;}.cls-2{clip-path:url(#clippath-1);}.cls-3{fill:#005cb9;}.cls-4{clip-path:url(#clippath);}</style><clipPath id="clippath"><rect class="cls-1" width="79.9" height="15.99"/></clipPath><clipPath id="clippath-1"><rect class="cls-1" width="79.9" height="15.99"/></clipPath></defs><g class="cls-4"><path class="cls-3" d="M7.98,3.27c2.16,0,3.06,1.61,3.24,2.85l.79-3.65c-1.21-.54-2.9-.64-3.59-.64-1.79,0-5.51.9-6.34,4.24-.34,1.36-.15,2.57,1.39,3.65,1.49,1.02,4.09,1.1,3.63,2.99-.24.98-1.24,1.83-2.98,1.83-2.25,0-3.21-1.99-3.19-3.43L0,15.31c.67.24,2.26.66,4.33.66,3.44,0,6.19-1.97,6.81-4.48.74-2.99-1.44-3.71-3.14-4.44-1.72-.7-2.79-1.02-2.49-2.23.22-.89,1.2-1.57,2.46-1.57"/><path class="cls-3" d="M22.67,12.86c.16-.64.65-1.04,1.29-1.38.57-.26.84-.28,1.45-.52l-.71,2.89c-.25.14-.6.28-1,.28-.64,0-1.25-.36-1.03-1.27M28.52,14.86h.03s-.05-.04-.07-.06c-.07-.16-.02-.37.07-.72l1.13-4.59c.82-3.33-1.92-3.53-3.18-3.53-1.83,0-3.5.34-4.48.64l-.87,3.09c.56-.84,2.24-2.41,3.81-2.41.82,0,1.25.58,1.02,1.58-.07.4-.14.66-.62.91-.93.48-3.03.68-4.32,1.34-1.26.62-1.93,1.49-2.13,2.27-.08.31-.09.64-.02.95-.28.19-.54.39-1.06.39s-2.04.04-1.5-2.13l1.19-4.8h2.62l.38-1.52h-2.6l.63-2.57-6.45,4.09h1.36l-1.15,4.68c-.48,1.93.64,3.49,3.39,3.49,1.83,0,2.82-.89,3.23-1.49.22.81.94,1.49,2.3,1.49,1.24,0,2.56-.54,3.38-1.11-.03.66.29.88.71,1.13l3.59-.88c-.2-.08-.33-.15-.4-.25"/><path class="cls-3" d="M38.56,9.95l.95-3.85c-.22-.1-.41-.14-.94-.14-.79,0-1.82.52-2.82,1.71l.42-1.71-4.95.5c.33.1.74.22.59.84l-1.86,7.53c-.11.46-.4.74-.82.9h5.2c-.15-.08-.26-.18-.33-.32h.04s-.04-.03-.06-.04c-.06-.14-.06-.32,0-.54l1.48-5.98c.45-.32.82-.48,1.61-.48s1.41.62,1.48,1.59"/><path class="cls-3" d="M57.19,15.42h0s0,0-.01,0c-.08-.15-.1-.34-.04-.59l2.19-8.87-4.86.5c.28.1.71.24.55.86l-1.85,7.51c-.06.25-.18.44-.33.6-.08-.05-.15-.1-.22-.16-.15-.16-.28-.32-.33-.39l-1.7-2.93-2.7-4.68,6.12-4.38c.49-.36,1.31-.64,2.01-.8h-4.7c.46.28.29.8-.03,1.02-.48.34-6.78,4.78-6.78,4.78l1.21-4.9c.11-.46.4-.72.8-.9h-5.38c.31.18.49.44.37.9l-2.92,11.84c-.12.46-.43.74-.82.9h5.38c-.31-.16-.46-.44-.35-.9l1.3-5.26s2.95,5.02,3.08,5.28c.13.26-.14.74-.62.88h10.93c-.15-.08-.26-.18-.33-.31"/><path class="cls-3" d="M65.53,7.2c1.25,0,1.71,1.46,1.92,2.49l.76-3.45c-1.04-.18-2.29-.28-2.84-.28-3.24,0-4.85,1.44-5.21,2.91-.29,1.16-.07,2.07,1.62,3.05,1.46.88,1.92,1.05,1.77,1.69-.1.42-.62,1-1.88,1-1.41,0-2.22-1.45-2.22-2.89l-.8,3.51c1.18.56,2.33.74,3.54.74,1.59,0,4.81-.82,5.4-3.19.46-1.87-.98-2.65-2.28-3.35-.74-.4-1.58-.72-1.43-1.36.11-.46.52-.86,1.65-.86"/><path class="cls-3" d="M74.24,7.81h2.62l.38-1.52h-2.6l.64-2.57-6.46,4.09h1.37l-1.16,4.68c-.48,1.93.64,3.49,3.39,3.49,2.14,0,3.12-1.21,3.39-1.77-.36.22-.62.52-1.25.52-.51,0-2.04.04-1.5-2.13l1.18-4.8Z"/></g><polygon class="cls-3" points="57.46 0 57.32 2.11 55.62 3.01 55.61 3.01 55.24 3.2 55.25 3.2 55.23 3.21 55.7 3.28 55.72 3.27 57.27 3.49 57.21 5.59 57.22 5.58 57.22 5.58 58.62 3.64 60.55 3.83 60.56 3.84 60.67 3.85 60.66 3.84 60.68 3.84 60.47 3.57 60.45 3.57 59.52 2.37 60.83 .39 60.49 .55 58.74 1.38 57.46 0"/><g class="cls-2"><path class="cls-3" d="M78.2,14.14v-.46h.26c.14,0,.32.03.32.22,0,.21-.13.24-.31.24h-.28ZM79.1,13.93c0-.38-.22-.52-.62-.52h-.6v1.75h.32v-.75h.2l.39.75h.33l-.42-.76c.24-.02.42-.14.42-.47"/><path class="cls-3" d="M78.45,15.52c-.6,0-1.07-.52-1.07-1.23s.47-1.22,1.07-1.22,1.07.51,1.07,1.22-.49,1.23-1.07,1.23M78.45,12.73c-.77,0-1.46.61-1.46,1.55s.68,1.57,1.46,1.57,1.46-.62,1.46-1.57-.69-1.55-1.46-1.55"/></g></svg>