<?xml version="1.0" encoding="UTF-8"?><svg id="Layer_1" xmlns="http://www.w3.org/2000/svg" viewBox="0 0 69.93 14"><defs><style>.cls-1{fill:#005cb9;}</style></defs><path class="cls-1" d="M6.98,2.86c1.89,0,2.68,1.41,2.84,2.5l.69-3.2c-1.06-.47-2.54-.56-3.14-.56-1.56,0-4.82.79-5.54,3.71-.29,1.19-.13,2.25,1.22,3.2,1.3.89,3.58.96,3.17,2.62-.21.86-1.09,1.6-2.61,1.6-1.97,0-2.81-1.74-2.79-3l-.82,3.69c.58.21,1.98.58,3.79.58,3.01,0,5.42-1.72,5.96-3.92.65-2.62-1.26-3.25-2.74-3.88-1.51-.61-2.44-.89-2.18-1.95.19-.78,1.05-1.37,2.15-1.37"/><path class="cls-1" d="M19.84,11.26c.14-.56.57-.91,1.13-1.21.5-.23.74-.25,1.27-.46l-.62,2.53c-.22.12-.53.25-.87.25-.56,0-1.1-.32-.9-1.11M24.96,13.01h.03s-.04-.04-.06-.05c-.06-.14-.02-.32.06-.63l.99-4.02c.72-2.92-1.68-3.09-2.78-3.09-1.6,0-3.07.3-3.92.56l-.76,2.71c.49-.74,1.96-2.11,3.33-2.11.71,0,1.09.51.89,1.39-.07.35-.12.58-.54.79-.82.42-2.66.6-3.78,1.18-1.1.54-1.69,1.3-1.86,1.98-.07.27-.07.56-.02.83-.24.17-.47.35-.93.35s-1.78.03-1.32-1.86l1.04-4.2h2.3l.33-1.33h-2.28l.55-2.25-5.65,3.58h1.2l-1.01,4.09c-.42,1.69.56,3.06,2.97,3.06,1.6,0,2.46-.78,2.82-1.31.19.71.83,1.31,2.02,1.31,1.08,0,2.24-.48,2.96-.97-.03.58.25.77.62.99l3.14-.77c-.18-.07-.29-.14-.35-.22"/><path class="cls-1" d="M33.75,8.71l.83-3.37c-.19-.09-.36-.12-.82-.12-.69,0-1.6.46-2.47,1.49l.37-1.49-4.33.44c.29.09.65.19.51.74l-1.63,6.59c-.1.4-.35.65-.71.79h4.55c-.13-.07-.23-.16-.28-.28h.04s-.04-.02-.05-.04c-.05-.13-.06-.28,0-.47l1.3-5.24c.4-.28.72-.42,1.41-.42.66,0,1.24.54,1.3,1.39"/><path class="cls-1" d="M50.06,13.5h0s0,0,0,0c-.07-.13-.09-.3-.03-.51l1.92-7.77-4.25.44c.25.09.62.21.48.76l-1.62,6.57c-.05.22-.15.39-.29.52-.07-.04-.13-.09-.19-.14-.13-.14-.25-.28-.29-.35l-1.49-2.57-2.36-4.09,5.36-3.83c.42-.32,1.14-.56,1.76-.7h-4.11c.4.25.25.7-.03.89-.42.3-5.93,4.18-5.93,4.18l1.06-4.29c.1-.4.35-.63.7-.79h-4.71c.27.16.43.39.33.79l-2.56,10.36c-.1.4-.37.65-.72.79h4.71c-.27-.14-.41-.38-.31-.79l1.14-4.6s2.58,4.39,2.7,4.62c.12.23-.12.65-.54.77h9.57c-.13-.06-.23-.15-.29-.27"/><path class="cls-1" d="M57.36,6.31c1.1,0,1.5,1.28,1.68,2.18l.67-3.02c-.91-.16-2-.25-2.49-.25-2.83,0-4.25,1.26-4.56,2.55-.25,1.02-.06,1.81,1.42,2.67,1.28.77,1.68.92,1.55,1.48-.09.37-.55.88-1.64.88-1.23,0-1.94-1.27-1.94-2.53l-.7,3.07c1.04.49,2.04.65,3.1.65,1.39,0,4.21-.72,4.72-2.79.4-1.63-.86-2.32-2-2.94-.65-.35-1.39-.63-1.25-1.19.1-.41.46-.76,1.44-.76"/><path class="cls-1" d="M64.98,6.83h2.3l.33-1.33h-2.27l.56-2.25-5.65,3.58h1.2l-1.01,4.09c-.42,1.69.56,3.06,2.97,3.06,1.87,0,2.73-1.06,2.97-1.55-.32.19-.54.46-1.1.46-.44,0-1.79.03-1.32-1.86l1.04-4.2Z"/><polygon class="cls-1" points="48.67 2.63 48.35 2.81 48.35 2.81 48.34 2.81 48.75 2.87 48.76 2.86 50.12 3.05 50.08 4.9 50.08 4.88 50.08 4.89 51.3 3.19 52.99 3.35 53 3.36 53.1 3.37 53.09 3.36 53.11 3.36 52.92 3.12 52.91 3.12 52.09 2.07 53.24 .34 52.94 .48 51.42 1.21 50.29 0 50.17 1.85 48.68 2.63 48.67 2.63"/><path class="cls-1" d="M68.44,12.38v-.4h.23c.13,0,.28.02.28.19,0,.19-.11.21-.27.21h-.24ZM69.23,12.19c0-.33-.2-.45-.55-.45h-.52v1.53h.28v-.65h.17l.34.65h.29l-.37-.67c.21-.02.36-.13.36-.41"/><path class="cls-1" d="M68.66,13.58c-.52,0-.94-.45-.94-1.08s.42-1.07.94-1.07.93.45.93,1.07-.42,1.08-.93,1.08M68.66,11.14c-.68,0-1.27.53-1.27,1.36s.6,1.37,1.27,1.37,1.27-.54,1.27-1.37-.6-1.36-1.27-1.36"/></svg>