<?xml version="1.0" encoding="UTF-8"?><svg id="Layer_1" xmlns="http://www.w3.org/2000/svg" viewBox="0 0 12.83 12.8"><defs><style>.cls-1{fill:#fdfced;}</style></defs><polygon class="cls-1" points="1.55 6.83 .8 7.22 .81 7.22 .78 7.24 1.72 7.37 1.76 7.35 4.88 7.79 4.77 12.02 4.79 12 4.79 12 7.59 8.1 11.47 8.47 11.49 8.5 11.72 8.52 11.7 8.5 11.74 8.5 11.31 7.95 11.28 7.95 9.4 5.53 12.05 1.55 11.36 1.88 7.85 3.55 5.27 .78 4.99 5.03 1.56 6.83 1.55 6.83"/><polygon class="cls-1" points=".87 6.89 .02 7.33 .04 7.33 0 7.35 1.08 7.5 1.11 7.48 4.67 7.98 4.54 12.8 4.56 12.77 4.56 12.78 7.75 8.34 12.17 8.76 12.19 8.79 12.45 8.81 12.43 8.78 12.48 8.79 11.99 8.17 11.95 8.17 9.82 5.41 12.83 .88 12.04 1.26 8.04 3.15 5.11 0 4.79 4.83 .89 6.89 .87 6.89"/></svg>