<?xml version="1.0" encoding="UTF-8"?><svg id="Layer_1" xmlns="http://www.w3.org/2000/svg" viewBox="0 0 12.38 12.35"><defs><style>.cls-1{fill:#fdfced;}</style></defs><polygon class="cls-1" points="1.32 6.61 .58 7 .59 7 .56 7.01 1.5 7.15 1.54 7.13 4.66 7.57 4.55 11.8 4.57 11.77 4.57 11.78 7.37 7.88 11.25 8.25 11.27 8.28 11.5 8.3 11.48 8.27 11.52 8.28 11.09 7.73 11.06 7.73 9.18 5.31 11.83 1.33 11.13 1.66 7.62 3.33 5.05 .56 4.77 4.8 1.34 6.61 1.32 6.61"/><polygon class="cls-1" points=".84 6.65 .02 7.08 .04 7.08 0 7.1 1.04 7.24 1.08 7.22 4.51 7.71 4.39 12.35 4.41 12.32 4.41 12.34 7.49 8.05 11.75 8.46 11.77 8.48 12.02 8.51 12 8.48 12.04 8.48 11.57 7.89 11.54 7.89 9.48 5.23 12.38 .85 11.62 1.21 7.77 3.04 4.93 0 4.63 4.67 .86 6.65 .84 6.65"/></svg>